<svg id="Layer_1" data-name="Layer 1" xmlns="http://www.w3.org/2000/svg" viewBox="0 0 350 400"><defs><style>.cls-1{fill:#fff;}</style></defs><rect class="cls-1" x="119.94" y="-14.74" width="25" height="180.42" rx="12.5" transform="translate(56.96 207.91) rotate(-90)"/><rect class="cls-1" x="119.94" y="52.94" width="25" height="180.42" rx="12.5" transform="translate(-10.71 275.58) rotate(-90)"/><rect class="cls-1" x="80.77" y="159.78" width="25" height="102.09" rx="12.5" transform="translate(-117.55 304.1) rotate(-90)"/><path class="cls-1" d="M264.5,147.5c7.67-13.21,6.38-11.61,14.2-24.73,3.32-5.55,15.67-15.27,27.23-16,20.94-1.31,39.75,13.8,41.93,34.67.35,3.35.27,12.5-.39,16-.35,5.54-7.13,17.24-9.83,21.9-22.83,39.26-31.27,54.74-54.16,94a21.62,21.62,0,0,0-3,11c.11,28,.06,72.85.05,100.84a40.92,40.92,0,0,1-.11,4.7c-.48,4.1-2.74,6.14-6.88,6.26H16.14c-.81,0-1.62.05-2.43,0a7,7,0,0,1-4.64-2c-2.22-2.17-1.82-4.5-1.82-6.8,0-108.85,0-260.11,0-369V16.66c.07-4.63.73-5.57,5-7.06H277c3.33,2.24,4.35,5.37,4.23,9.34-.23,7.71,0,135.34-.08,143.06,0,5-2.54,7.8-6.76,7.78s-16.16-3-16.18-7.85c0-5.59-.07-121.43,0-127,0-1.72,1.85-2,0-1.72-.55.08-3.35-.51-3.91-.51-77.11,0-145.08,0-222.19-.08-3.34,0-3.92.9-3.92,4,.09,103.05.09,228.92,0,332,0,3.34.91,3.93,4,3.92,50.59-.1,78.42-.1,129,0,3,0,3.84-.81,4.13-3.81,1.52-17,2-41.82,4.4-57.79.2-1.84,1.3-3.3,2.18-4.83,23.63-40.94,48.21-82.41,71.88-123.32ZM217,338.31c31.84-55.09,56.45-97.65,88.32-152.73,1-1.67,1-2.44-.82-3.47-7.11-4-14.16-8-21.16-12.18-1.71-1-2.54-.9-3.58.9-31.89,55.34-56.63,98.12-88.62,153.41-1,1.65-.79,2.26.87,3.18,7.2,4,14.3,8.22,21.44,12.36l1.55.84C216.35,340.51,216.5,339.18,217,338.31ZM208.39,372a16.33,16.33,0,0,0,1.93,0h45.45c2.31,0,2.42-2.9,2.42-4.73-.05-19.58,0-26.65,0-46.23v-1.49a36.35,36.35,0,0,0-2,4.16c-6.63,11.46-11.6,16.5-17.74,27.24a9,9,0,0,1-3.2,3.25Zm100.4-239.59c-.44.06-.87.19-1.31.27-6.77,1.18-9.74,6.39-12.7,11.73-.83,1.52-.71,2.17.77,3,5.43,3,10.74,6.29,16.23,9.22,2.54,1.35,5.12,4.91,7.82,3.15,2.28-1.49,3.43-5.1,4.49-8,3.44-9.45-3.92-19.55-14.32-19.44A9.28,9.28,0,0,0,308.79,132.36ZM189.3,361.06c7.61-5.56,5.72-4.59,13.1-10-6.56-3.77-6-3.56-12.39-7.24Z"/></svg>