<svg id="Layer_1" data-name="Layer 1" xmlns="http://www.w3.org/2000/svg" viewBox="0 0 350 400"><defs><style>.cls-1{fill:#fff;}</style></defs><path class="cls-1" d="M243.07,17.76a141.58,141.58,0,0,1,12,9.67c22.81,18.86,52.36,48.26,73.27,67.9,10,9.35,14.69,20.57,14.67,34.3-.14,77.22-.27,143.93.07,221.15.08,20.15-13.56,39.34-35.37,42.93a38.22,38.22,0,0,1-6.05.43c-70.18,0-183.71,0-254.39,0-24.33,0-42.47-18.21-42.47-42.62,0-100.61.2-201.21-.16-301.82C4.52,26.17,21.31,9.21,38.85,6.52c.29,0,.53-.44.79-.68H203.48A70.06,70.06,0,0,1,243.07,17.76ZM29.61,348.41c0,12.8,7.84,20.73,20.53,20.74,69.14,0,179.33,0,248.47,0,12.52,0,20.53-7.93,20.53-20.37,0-75.45,0-128.28.08-203.74,0-2.81-.66-3.48-3.47-3.46-20.7.13-63.76-.54-84.44.26-17.25.66-30-15.81-29.3-32.57.33-21.11-.14-55.42,0-74.63,0-2.93-.71-3.66-3.65-3.66-42.79.11-104.3.07-147.09.08-14.23,0-21.66,7.5-21.66,21.86,0,49.34,0,96.24,0,145.58Q29.61,273.46,29.61,348.41Zm197.73-305c0,15.78,0,51.13,0,66.91,0,5,1.11,6.08,6.3,6.08h82.65c-20.32-19.23-68.67-61.81-89-81Z"/><path class="cls-1" d="M59.48,308.94c-7.29,0-12.23,5.19-12.17,12.67.07,7.24,5,12.3,12.13,12.31q82.65,0,165.31,0a11.36,11.36,0,0,0,4.11-.48c5.53-2.06,8.76-7.53,8-13.85A11.68,11.68,0,0,0,225.55,309q-41.7-.06-83.41,0Q100.82,308.93,59.48,308.94Z"/><path class="cls-1" d="M59.46,248.26c-7.13,0-12.07,5.05-12.15,12.29-.07,7.47,4.88,12.69,12.15,12.69H224.77a11.37,11.37,0,0,0,4.11-.49c5.53-2.07,8.75-7.55,8-13.87a11.68,11.68,0,0,0-11.34-10.61q-41.52-.06-83,0T59.46,248.26Z"/><path class="cls-1" d="M59.29,187.6c-6.87,0-12,5.51-12,12.58s5.16,12.36,11.79,12.37q27.29.06,54.58,0c6.74,0,11.63-5.28,11.67-12.36,0-7.29-4.89-12.56-11.85-12.59-9,0-17.94,0-26.91,0S68.39,187.56,59.29,187.6Z"/></svg>