<svg id="Layer_1" data-name="Layer 1" xmlns="http://www.w3.org/2000/svg" viewBox="0 0 350 400"><defs><style>.cls-1{fill:#fff;}</style></defs><path class="cls-1" d="M171.37,6h6.12c4.08.29,7.06,2.46,9.87,5.28q78.12,78.22,156.35,156.33a18.38,18.38,0,0,1,5.67,13.57c.24,10.34-11.87,16.94-20.88,11.91a52.86,52.86,0,0,1-4.54-3.21c-.84,1.46-.5,2.83-.5,4.13,0,47.73,0,135,0,182.72,0,4.17-.48,8.15-2.84,11.71s-5.68,5.78-10.18,5.74c-.9,0-1.81,0-2.72,0H42.06c-10.41,0-15.88-5.32-15.93-15.85-.1-19.73,0-79,0-98.71q0-43,0-86.06a10.18,10.18,0,0,0-.26-3.58c-1.28.23-2,1.32-3,2a14.53,14.53,0,0,1-17.45-.13,12.18,12.18,0,0,1-4.79-8.26v-6.81c.47-3.41,2.36-6,4.73-8.34Q84.21,89.57,163,10.71C165.4,8.34,168,6.45,171.37,6ZM298.89,162.16a6.72,6.72,0,0,0-2.27-5.33c-39.88-38.52-79.71-83-119.5-121.6-1.74-1.68-2.59-2.06-4.59-.12C132.69,73.82,92.76,118.36,52.8,157a6.35,6.35,0,0,0-2.14,5c.06,53.86.06,150.23,0,204.09,0,2.69.45,3.64,3.54,3.6,15.92-.17,33.86-.15,49.78,0,2.82,0,3.39-.76,3.38-3.34-.1-29.37-.06-101.25-.06-130.62,0-10.28,5.57-15.74,16.18-15.74,35.48,0,66,0,101.46,0,10.84,0,16.34,5.39,16.34,15.93,0,29.36,0,101.25-.06,130.61,0,2.51.55,3.18,3.22,3.16,15.93-.14,34.86-.18,50.78,0,3.33,0,3.72-1,3.71-3.8-.11-26.87-.07-96.27-.07-123.14S298.82,189,298.89,162.16Zm-163.8,82.18c-2.42,0-3,.65-3,3,.08,26,.08,93.44,0,119.4,0,2.3.56,3,3,3q39.69-.15,79.38,0c2.39,0,3-.59,3-2.94-.09-26-.1-93.44,0-119.4,0-2.74-1.06-3-3.38-3-13.1.09-26.21.05-39.32.05S148.32,244.46,135.09,244.34Z"/></svg>