<svg id="Layer_1" data-name="Layer 1" xmlns="http://www.w3.org/2000/svg" viewBox="0 0 350 350"><defs><style>.cls-1{fill:#fff;}</style></defs><g id="Group_2199" data-name="Group 2199"><path id="Path_1624" data-name="Path 1624" class="cls-1" d="M174.22,67.65A61.79,61.79,0,1,0,236,129.44,61.78,61.78,0,0,0,174.22,67.65Zm0,92.68a30.9,30.9,0,1,1,30.9-30.89A30.89,30.89,0,0,1,174.22,160.33Z"/><path id="Path_1625" data-name="Path 1625" class="cls-1" d="M174.22,5.87A169.11,169.11,0,1,0,294.6,55.4,169.12,169.12,0,0,0,174.22,5.87ZM80,277.72A204,204,0,0,1,174.22,253a204,204,0,0,1,94.23,24.72A138.26,138.26,0,0,1,80,277.72Zm209.3-23.94h0a237.07,237.07,0,0,0-115.08-31.67A237,237,0,0,0,59.15,253.78h0a136.64,136.64,0,0,1-23.94-78,139,139,0,0,1,278,0A136.72,136.72,0,0,1,289.3,253.78Z"/></g></svg>