<svg id="Group_1837" data-name="Group 1837" xmlns="http://www.w3.org/2000/svg" xmlns:xlink="http://www.w3.org/1999/xlink" width="72.169" height="41.978" viewBox="0 0 72.169 41.978">
  <defs>
    <clipPath id="clip-path">
      <rect id="Rectangle_818" data-name="Rectangle 818" width="72.169" height="41.978" fill="#fff"/>
    </clipPath>
  </defs>
  <g id="Group_1835" data-name="Group 1835" clip-path="url(#clip-path)">
    <path id="Path_1548" data-name="Path 1548" d="M66.981,19.782h7.634v2.3H72.4v5.582H69.2V22.081H66.981Zm11.492,3.2,1.642,4.679h3.037l-3.037-7.881H76.831l-3.037,7.881h3.037Zm3.94-3.2h7.634v2.3H87.832v5.582h-3.12V22.081h-2.3Zm11.492,3.2,1.642,4.679h3.037l-3.037-7.881H92.182l-2.956,7.881h3.037Zm.082-17.649a7.042,7.042,0,0,0-1.067-1.642A10.95,10.95,0,0,0,88.571.985,16.244,16.244,0,0,0,82.824,0,16.7,16.7,0,0,0,77,.985a11.22,11.22,0,0,0-4.269,2.709,11.755,11.755,0,0,0-1.149,1.642,47.924,47.924,0,0,1,9.769-1.4c.411,0,.656.082.738.329.246.246.246,1.067.246,1.477L82.249,15.76c.165,0,.329.082.575.082a1.4,1.4,0,0,0,.574-.082L83.316,5.746a4.061,4.061,0,0,1,.165-1.477.8.8,0,0,1,.739-.329,47.059,47.059,0,0,1,9.768,1.4m.493,1.313h0a6.431,6.431,0,0,1,.164,1.314c0,3.447-3.366,6.32-8.045,7.388-.082-.492-.9-3.776-1.56-7.552,0-.165,0-.246-.082-.329-.164-1.313-.164-1.97,1.806-1.888a48.6,48.6,0,0,1,7.717,1.067M80.608,7.47h0v.164c-.656,3.94-1.477,7.224-1.642,7.8A18.405,18.405,0,0,1,77,14.775a12.172,12.172,0,0,1-4.269-2.627A6.431,6.431,0,0,1,71,7.962a3.405,3.405,0,0,1,.164-1.314,47.372,47.372,0,0,1,7.716-1.067c1.888-.082,1.888.575,1.724,1.888" transform="translate(-46.699 0)" fill="#fff" fill-rule="evenodd"/>
    <path id="Path_1549" data-name="Path 1549" d="M36.917,119.685h1.334v-2.833h.667a3.161,3.161,0,0,0,2.417-.833A2.189,2.189,0,0,0,42,114.351a1.883,1.883,0,0,0-.75-1.666,3.446,3.446,0,0,0-2.25-.667,12.3,12.3,0,0,0-2.084.167Zm1.334-6.5a2.086,2.086,0,0,1,.834-.084c.917,0,1.5.416,1.5,1.25,0,.917-.583,1.417-1.667,1.417h-.667Zm8.084,6.667c2.084,0,3.667-1.5,3.667-4,0-2.167-1.334-3.916-3.584-3.916-2.084,0-3.583,1.666-3.583,4,0,2.25,1.334,3.917,3.5,3.917m.083-1.167c-1.333,0-2.167-1.25-2.167-2.75S45,113.1,46.418,113.1c1.333,0,2.083,1.333,2.083,2.75,0,1.583-.75,2.833-2.083,2.833m7.417,1,.917-3.584a12.443,12.443,0,0,0,.5-2.416c.166.834.25,1.583.5,2.416l.75,3.584H58l2-7.583H58.585l-.75,3.416c-.167.917-.417,1.834-.5,2.667h-.084c-.083-.833-.25-1.667-.416-2.584l-.751-3.5h-1.5l-.834,3.416c-.166,1-.416,1.917-.5,2.667-.167-.75-.333-1.75-.5-2.667L52,112.1H50.5l1.833,7.583Zm11.417-4.5H62.335v-1.917h3.083V112.1H61v7.583h4.584V118.6h-3.25v-2.25h2.917Zm1.5,4.5h1.417V116.6h.667c.833,0,1.167.333,1.417,1.333a7.961,7.961,0,0,0,.5,1.751h1.417a14.8,14.8,0,0,1-.584-2.084,1.923,1.923,0,0,0-1.083-1.5,2,2,0,0,0,1.417-1.916,1.829,1.829,0,0,0-.667-1.5,3.133,3.133,0,0,0-2.333-.667,15.3,15.3,0,0,0-2.167.167Zm1.417-6.5A2.085,2.085,0,0,1,69,113.1c.917,0,1.5.333,1.5,1.167,0,.75-.584,1.249-1.5,1.249h-.833ZM0,112.018H7.75v2.416H5.5v5.583H2.25v-5.583H0Zm11.667,3.25,1.667,4.75h3.083l-3.083-8H9.917l-3,8H10Zm4-3.25h7.75v2.416h-2.25v5.583H18v-5.583H15.667Zm11.584,3.25,1.667,4.75h3.166l-3.166-8H25.584l-3,8h3.084Z" transform="translate(0 -78.04)" fill="#fff" fill-rule="evenodd"/>
  </g>
</svg>
